<?xml version="1.0" encoding="utf-8"?>
<!-- Generator: Adobe Illustrator 20.0.0, SVG Export Plug-In . SVG Version: 6.00 Build 0)  -->
<svg version="1.1" id="Camada_1" xmlns="http://www.w3.org/2000/svg" xmlns:xlink="http://www.w3.org/1999/xlink" x="0px" y="0px"
	 viewBox="0 0 36 36" style="enable-background:new 0 0 36 36;" xml:space="preserve">
<style type="text/css">
	.st0{fill:#00913E;}
	.st1{fill:#F7C000;}
	.st2{fill:#28166F;}
	.st3{fill:#FFFFFF;}
</style>
<g>
	<path class="st0" d="M36,18c0,0.6,0,1.2-0.1,1.8C35,28.9,27.3,36,18,36C8.6,36,0.9,28.9,0,19.8C0,19.2,0,18.6,0,18
		c0-0.6,0-1.2,0.1-1.8C0.9,7.1,8.6,0,18,0c9.3,0,17,7.1,17.9,16.2C35.9,16.8,36,17.4,36,18z"/>
	<path class="st1" d="M35.9,16.2L18,2.8L0,16.2C0,16.8,0,17.4,0,18c0,0.6,0,1.2,0.1,1.8L18,33.2l17.9-13.4c0.1-0.6,0.1-1.2,0.1-1.8
		C36,17.4,35.9,16.8,35.9,16.2z"/>
	<circle class="st2" cx="18" cy="18" r="8.7"/>
	<path class="st3" d="M26.4,20.3c-0.1,0.5-0.3,1-0.6,1.5c-1.9-2.2-6.7-6.5-16.1-6.3c0.2-0.5,0.3-0.9,0.5-1.3
		C13.6,14.1,22.4,14.7,26.4,20.3z"/>
</g>
</svg>
