<svg xmlns="http://www.w3.org/2000/svg" viewBox="0 0 96 96"><defs><style>.cls-1{fill:#fff;fill-opacity:0;opacity:0;}.cls-2{fill:#cd992b;}.cls-3{fill:#ffd400;}.cls-4{fill:#ffc20e;}.cls-4,.cls-5{fill-rule:evenodd;}.cls-5{fill:#00416b;}.cls-6{fill:#0083ca;}</style></defs><title>entrar-cor</title><g id="Camada_2" data-name="Camada 2"><g id="Ícones_Personalizados" data-name="Ícones Personalizados"><rect class="cls-1" width="96" height="96"/><path class="cls-2" d="M84,15.6V80.4A3.64,3.64,0,0,1,80.31,84H39.69A3.64,3.64,0,0,1,36,80.4V15.6A3.64,3.64,0,0,1,39.69,12H80.31a3.69,3.69,0,0,1,2.62,1.07A3.5,3.5,0,0,1,84,15.6Z"/><path class="cls-3" d="M80,15.6V80.4A3.64,3.64,0,0,1,76.31,84H35.69A3.64,3.64,0,0,1,32,80.4V15.6A3.64,3.64,0,0,1,35.69,12H76.31a3.69,3.69,0,0,1,2.62,1.07A3.5,3.5,0,0,1,80,15.6Z"/><path class="cls-4" d="M80,15.6V80.4A3.64,3.64,0,0,1,76.31,84H35.69A3.64,3.64,0,0,1,32,80.4V60L78.93,13.07A3.5,3.5,0,0,1,80,15.6Z"/><path class="cls-5" d="M58.29,45.65,44,26V40H16a4,4,0,0,0-4,4v8a4,4,0,0,0,4,4H44V70L58.29,50.35A4,4,0,0,0,58.29,45.65Z"/><circle class="cls-6" cx="72" cy="48" r="4"/></g></g></svg>